<?xml version="1.0" encoding="utf-8"?>
<!-- Generator: Adobe Illustrator 21.1.0, SVG Export Plug-In . SVG Version: 6.00 Build 0)  -->
<svg version="1.1"
	 id="svg2" inkscape:version="0.48.3.1 r9886" sodipodi:docname="Languages_of_South_America (en).svg" xmlns:cc="http://creativecommons.org/ns#" xmlns:dc="http://purl.org/dc/elements/1.1/" xmlns:inkscape="http://www.inkscape.org/namespaces/inkscape" xmlns:rdf="http://www.w3.org/1999/02/22-rdf-syntax-ns#" xmlns:sodipodi="http://sodipodi.sourceforge.net/DTD/sodipodi-0.dtd" xmlns:svg="http://www.w3.org/2000/svg"
	 xmlns="http://www.w3.org/2000/svg" xmlns:xlink="http://www.w3.org/1999/xlink" x="0px" y="0px" viewBox="0 0 600 400"
	 style="enable-background:new 0 0 600 400;" xml:space="preserve">
<style type="text/css">
	.st0{fill:#898989;stroke:#FFFFFF;stroke-miterlimit:10;}
	.st1{fill:#CCCCCC;stroke:#FFFFFF;stroke-miterlimit:10;}
	.st2{fill:#1C1C1C;stroke:#FFFFFF;stroke-miterlimit:10;}
	.st3{fill:#343434;stroke:#FFFFFF;stroke-miterlimit:10;}
	.st4{fill:#262626;stroke:#FFFFFF;stroke-miterlimit:10;}
	.st5{fill:#FFFFFF;stroke:#FFFFFF;stroke-miterlimit:10;}
	.st6{fill:none;stroke:#FFFFFF;stroke-width:0.7199;stroke-linejoin:bevel;}
	.st7{fill:#E3E3E3;stroke:#FFFFFF;stroke-width:0.7199;stroke-linejoin:bevel;}
	.st8{fill:#B0B0B0;stroke:#FFFFFF;stroke-width:0.7199;stroke-linejoin:bevel;}
	.st9{fill:#3366CC;}
	.st10{font-family:'AvenirNext-Bold';}
	.st11{font-size:143.5497px;}
</style>
<path id="path6" inkscape:connector-curvature="0" class="st0" d="M358.4,0.8l-10,6.8L343.2,8l-0.8,2l-3.2-0.4l-2.8,1.6l-2.8,4V16
	l0.4,2.8l-8,5.6l0.8,3.6l-2.4-2.1l0.9,2.7l-4.8,4.1l2.7,3.3l-1.6,13.6l2.8,1.2l-0.8,1.6l-3.6,6l-4.8,2v4l-3.2,0.8l0.8,3.2l-6.4,2.4
	l-0.4,0.4l0.4,2l0.4,1.2l-0.4,0.4l-2.8,3.6l1.2,1.2l-3.6,2.8v7.6l4,2l1.2-2.4l0.8-0.8l1.2,2l-2,4.8l-7.2,6.4l2.8,8l-1.6,2.4l6.8,3.6
	l6.4,8.4l5.2,10.3l3.6,7.6l9.2,12.3l-0.8,3.2l3.2,4.4l4.8,4.4l22.3,10l7.2,6.8l1.6,10l0.8,8.8l-2.4,13.2l1.6,11.6l-4,22.3l2,6
	l-0.4,0.8L366,259l2.4,18.3l-5.2,21.5l-2.4,1.6l4,12.3l-2,9.6l2.4,2.8l-0.8,1.2l3.2-2l2,0.8l1.2-1.2l-2.4,3.2l2.8,1.2l-0.4,2l-2-1.2
	l2,2l-1.6-0.8l-0.4,5.6l2,2l-2,2l3.6,2l-3.6,4l3.2,1.2l-3.2,0.4v2l2-1.2l-1.2,5.2l-1.6-2l-2.4,0.4l2-0.4H366l0.8-2l-1.2,1.6
	l-1.6-1.2l-1.6,0.4l2.8,0.8l-1.2,2l-2.1,1.8l2.1-1.4l0.8,2l2.4-0.4l1.6,2.4l-2,1.6h2.4l-3.2,1.2l4-0.8l2.8,2l-2-0.4l1.6,2l-5.6-1.2
	l3.6,2l-2,1.2l1.6,0.8l-0.8,3.6l1.2-1.2l2.4,2.8l-2.8-0.4l1.2,2l1.2,1.6l-3.2-0.4l2.8,0.8l0.4,2.8l1.2-2.8l1.2,1.6l-2.4,1.2
	l-0.8,0.4l2.4,0.8l-0.4,2.8l2.4,2l-0.4-2l1.2,2l-1.2-2.8l3.2,1.2l-3.6-1.6l1.6-1.6l-0.4,2l2.8,1.2l-0.8,3.6v-2.4l-0.4,2l-0.4-1.6
	h-2.8l0.8,4l2.8-1.6h5.2l1.2,2.8l-2,2.4l0.4-1.6l-2.4,0.8l4.8,2.4l0.4-6.4l6-2.8l3.6,0.4l-2.8-3.6h-2.4l2.4-0.4l-2.4-2.4l3.6-5.2
	l-0.8-0.8l-0.8-1.6l1.2,1.6l0.4,0.4l1.6-0.4V371l0.8-5.2l7.2-6.4l-0.4-4l-4.4-0.8l-4-5.2l2.4-4.8l6.4-2l0.4-7.2l4.4-4l-3.2-2
	l2.8-0.8l1.2,2l2.4-1.6l-0.8-2.8l-3.2,2l-2.8-2l-0.4-8l6,2.4l6.8-1.6v-9.6l1.6,0.8l-1.6-3.6l6,1.2l5.2-1.2l7.6-1.6l4.8-2.4l4.4-7.2
	v-3.2l-3.2-2.4l1.2-4l-7.2-5.6l1.2-8l-0.4,5.2l3.2,3.2l8.4,3.2l10.4-1.2l8.8-9.6l2.4-7.6l7.2-8.4l-1.2-2.4l3.6,3.2l-8.8,9.9l7.2-6
	l4.4-6.8l2.8-4l5.6-4.4l2.4-8.8l-1.6-5.2l3.2-4.4l-2-1.2l2.8,0.8l4-4.8l7.2-4.4h5.2l6.4-4.8l4.4,1.2l2.8-2v2l6,0.4l0.4-2.8l6-2.4
	l-0.4-3.2l7.2-9.2l1.2-2l1.6-7.6l3.6-3.6l4.8-29.9l0.8-1.6l1.2,2.8l2.4-1.6l12.3-14.7l7.2-9.2l1.2-7.2l-2-10.4l-2-2.8l-8.4-2
	l-7.6-8.8l-8.8-6.4l-13.2-1.6l-6.8-4l-8.8,5.2l0.8-4l2.4-1.6l-4,0.4l3.2-2.4l-2-4l-2.8,2.4l-0.4-3.2l-1.2,1.2l0.8-1.2l-2,0.4
	l-1.6-2.4l-0.8,1.6l-0.4-2.4l-0.8,1.2l-6-3.6l-0.4,1.2l-4-1.2l-2.8,4.4l2.4,0.8l-2,0.8l-1.6-2l-5.2,5.6l1.6-4l-7.2,0.8l9.6-2
	l3.2-6.8l-12.3-2l-2.8,5.2v-2.8l-2.8,2.4v-2.8l-2.8,2.8l2.4-5.2l8.8-7.2h-1.2l1.2-2.8l-5.2-2.8l-3.6-12.3l-1.6-1.2l-0.4,2l-4-5.2
	l-12-6l-18.4-0.4l-7.6-6l-2,2.8l1.2-5.2l-3.6-3.6l-5.6-3.2l-1.6-0.4h-4v-4.4l-4.8-2.8l-4.4,0.8l-0.8-1.2l-2.4-2l6.4-2l-14.8,0.4
	l3.6,1.2l-8.8,2.4l-7.2-3.2l-11.6,1.6l-1.6-4l-7.2-0.8l-2.4-4l-1.2,3.2l2.4-0.4v1.2l-2-0.4l-8.8,4.4l2,4.4l1.2,1.2l-0.4,2.4l-4,1.6
	l-2.4-4l0.8-0.8l2.8-4l-2.4-4.8l5.6-2.8L358.4,0.8z M378.4,385.7l-1.2,2.4l1.6,0.4L378.4,385.7z M361.9,354.9l-0.3,0.2l0,0
	L361.9,354.9L361.9,354.9z M361.6,355.1l-0.4,0.4l1.6,0.8L361.6,355.1z M305.3,91.7l0.8,1.6l0.4-1.2l0.8-0.8l-0.8,0.4H305.3z
	 M423.8,7.6L419.5,8l1.2,2.4l-2.8,1.2l5.6-0.4L423.8,7.6z M362.8,326.8v8.8l2,0.4l2-1.6l-1.6-7.6H362.8z M370,341.1l-1.6,1.6l2,1.2
	L370,341.1z M366.8,362.6l-0.8,2.8h2.4L366.8,362.6z M367.2,365.8l0.4,3.6h-2.8l2.4,3.2l1.2-3.6l-0.4,4l2-1.2L367.2,365.8z
	 M366,373.4l0.8,2l0.8-2H366z M393.9,384.9l-6,1.6l0.4,3.2h4l-2,3.2l4.4,2l-1.2,1.2l-0.8-1.6l-0.8,1.2l-4.8-2l3.2,2l-2,0.4l-0.4-1.6
	l-4,2l19.2,0.8l5.6-2l-10.4-4L393.9,384.9z M379.6,386.5l-0.8,2.8l2,1.2l-0.8-1.2l3.6-2.8H379.6z M372,387.3l2.8,2l4,0.8L372,387.3z
	 M378.7,390.1l-2,2l2.4,1.6l1.6-1.2l-1.2,1.2l2.8-1.6L378.7,390.1z M388.3,390.5l-1.2,2.4l2.8,1.2L388.3,390.5z M384.3,392.9
	l0.4,1.2l2.4,0.4L384.3,392.9z M396.7,397.3l-5.6,1.2l2.8,2l-0.8-1.6h2.4v1.2l3.2,0.8l-4-2.8L396.7,397.3z"/>
<path id="path8" inkscape:connector-curvature="0" class="st1" d="M367.9,95.9l-0.1,0.2l-4.9-0.9L350,102l-1.3,7.8l-5,7.3l6.6,8.3
	l-1.5,2.4l5.4,0.5l0.8,3l2.7-0.3l3,0.2l4.2-4l0.2,2.8l-0.4,6.8l12,0.1l6.1-2.9l0.9-1.1l5-4l7.8-1.5v9.4l2.8,4.8l4.7,2.9l7.1,0.8
	l7.4,5.5l8.5,1.7l-0.4,7.9l2.4,7.1l10.8,0.6l-0.4,6l5.4,5.8l-3.8,11.7l1.5,5.8l-1,6.6l8.6,0.6l3.9,2.1l1.7,9.9l6.8,0.8l-1.7,9.3
	l3.3,0.7l-0.4,9.2l-11.1,6.4l-10.3,11.6l0.2,0.5l4.1-0.5l3.8,5.9l2.5-1.3l9.1,7.7l2.8,3.7l-2.5,2.3v3.6l0.8-1.5l0.3,2.7l4-4.4
	l2.4-7.6l7.2-8.4l-1.2-2.4l3.6,3.2l-8.8,10l7.2-5.9l4.4-6.8l2.8-4l5.6-4.4l2.4-8.8l-1.6-5.2l3.2-4.4l-2-1.2l2.8,0.8l4-4.8l7.2-4.4
	h5.2l6.4-4.8l4.4,1.2l2.8-2v2l5.9,0.4l0.4-2.8l6-2.4l-0.4-3.2l7.2-9.2l1.2-1.9l1.6-7.6l3.6-3.6l4.8-29.9l0.8-1.6l1.2,2.8l2.4-1.6
	l12.4-14.8l7.2-9.2l1.2-7.2l-2-10.3l-2-2.8l-8.4-2l-7.6-8.8l-8.8-6.4l-13.2-1.6l-6.8-4l-8.8,5.2l0.8-4l2.4-1.6l-4,0.4l3.2-2.4l-2-4
	l-2.8,2.4l-0.4-3.2l-1.2,1.2l0.8-1.2l-2,0.4l-1.6-2.4l-0.8,1.6l-0.4-2.4l-0.8,1.2l-6-3.6l-0.4,1.2l-4-1.2l-2.8,4.4l2.4,0.8l-2,0.8
	l-1.6-2l-5.2,5.6l1.6-4l-7.2,0.8l9.6-2l3.2-6.8l-12.4-2l-2.8,5.2v-2.8l-2.8,2.4v-2.8l-2.8,2.8l2.4-5.2l8.8-7.2h-1.2l1.2-2.8
	l-5.2-2.8l-3.6-12.4l-1.6-1.2l-0.4,2l-0.1-0.2l-7.6,10.4l-4.8-1.2l-2.4,1l-5.2-2.6h-6.3l0.4,3.7l-0.6,0.3l-8.3-0.8l-9.4,4.5
	l-5.7-4.2l-1.5-5.5l2.7-6.2l-3-2.9l-0.8-0.5l0.2-4.2l-3.8,0.4l0.8,1.1l-0.1,0.4l-2.4,2.2L413,45.5l-0.8,2.3l-10.9-3.6l-0.2,0.5
	l3.4,9.5l4.2,0.5l-0.1,1.4l-13.2,9.1l-0.5-2l-4.3,1.3l-3.8-2.6l-3.4-4.9l-2.6,2.4l-2-1.6l0.2,1.5l-10.2,0.8l-0.1,3.7l3.4-0.1
	l0.5,2.4l-5,0.4l-0.4,4.2v0.5l4.2,5.7L368,95.5L367.9,95.9z M494.1,69l-4.4,0.4l2.4,2L494.1,69z"/>
<path id="path12" inkscape:connector-curvature="0" class="st2" d="M481.6,46.1l-7.8,10.5l-4.3-1l-2.8,1.2l-2.8-1.3l3.1-6.1
	l-2.6-8.3l2.9-4.9l10.4,5.3L481.6,46.1L481.6,46.1z"/>
<path id="path14" inkscape:connector-curvature="0" class="st3" d="M467.1,49.1l-3.5,5.9l-1.6-1.1l-6.5,0.3l0.1,4l-3.5-0.7
	l-9.9-12.1l0.8-4.9l3.9-0.7l0.4-4.9l18.5,0.4l1.5,0.9l-2.9,4.5L467.1,49.1L467.1,49.1L467.1,49.1z"/>
<path id="path16" inkscape:connector-curvature="0" class="st4" d="M442.3,46.1l9.7,11.6l-5.4-0.4l-9.2,4.2l-5.6-3.8l-1.5-5.5
	l2.6-6.2l-3.9-3.6l0.6-3.9l-4.2-0.1l-3.8-4.2L423,30l5-1.7l-2.4-2.9l6.3-4.5l3.5,1.8l4.1,3.9l-1.3,4.6l1.8-2.8l7.9,6.7l-0.8,4.6
	l-4,0.9L442.3,46.1L442.3,46.1z"/>
<path id="path18" inkscape:connector-curvature="0" class="st5" d="M415.1,13.6l0.8,4.4l-0.4,1.6l-11,3.9l15-3.9l-2.8-0.4
	L415.1,13.6z M395.1,23.5l-4.8,1.6l-4.8,3.2l-2.4,5.6l7.2-8.3l4.8-1.6l4.4,1.2l0.2-0.1L395.1,23.5z M399.7,25.1l0.2,0.1l4.4-1.6
	L399.7,25.1z M412.7,24.3l-2,0.8l1.2,4.4L412.7,24.3z M460.9,40.7l-2.4,2.4h3.2L460.9,40.7z M393.1,70.5l-3.2,0.8h17.2l12.4,6
	l6.8,9.2l3.6,1.2l-5.2-0.4l-0.8,2.8l-6,2l-3.2-1.6l3.6,2l11.6-4.4l1.6-0.4l6.8,1.2l6.8-5.6l5.6,1.2l6.4-3.6l3.6,1.6H457l5.6,1.2
	l-2.8-0.4l-1.2,7.6l2.4-6.8l5.6-0.4l8.8-4.4l-9.6,4.4h-2v-1.6l-2-1.2l-7.2-0.4l-4,3.6l-5.6-1.2l-5.6,4.8l-9.6-0.4l-10-10.4
	l-13.2-6.4H393.1z M414.7,90.5l-4,2.4l-8-3.2l-6.8-6.4l-12.3,1.2l8.8-0.8l4.4,1.6l3.2,4.8l0.4-1.2l8.8,3.6l-2,0.8l0.4,2L414.7,90.5z
	 M383.6,84.5l-4.4,5.2l-7.2,0.4l-2.4,3.6l1.6,0.4l-1.2-0.8l2-2.8h6.8L383.6,84.5z M371.2,94.1l-2.9,1.8l0.1,0.2L371.2,94.1z
	 M368.2,95.9l-2.7-3h-7.2l7.2,0.4L368,96L368.2,95.9z M450.2,76.5l5.2,3.2l-0.4-2L450.2,76.5z M482.1,80.9l1.2,3.2l0.8-2.8l1.6,2.3
	l2-2.3L482.1,80.9z M485.7,83.6L485.7,83.6l1.2,1.7L485.7,83.6z M356,89.7l-3.6,0.8l-2.8-0.4l1.2,0.8l-2,1.2L356,89.7z M370,163.4
	l-0.8,3.2l4.8,2.8l1.2-1.2l1.2,2.8l1.6-2l-6-5.2L370,163.4z M387.1,179.7l-0.8,3.6l2,3.2L387.1,179.7z M515.6,184.5l-1.6,2.4l2-0.4
	l-1.6,2.8l2,0.4l1.6-1.2L515.6,184.5z M352.9,189.5v0.4V189.5z M513.2,198.9l-4.8,0.4l2,3.2l-1.6,1.6l1.6-0.8l2,2l-3.2-4.8l2-0.8
	l3.6,3.2l-2-2.8L513.2,198.9z M490.5,214l3.2,2l0.4-2H490.5z M438.2,236.7l-3.2,1.2l-2.8,9.6L431,249l-0.4,4.4H429v4l-0.4,0.8v2
	l-4,4.8l1.6,8l-1.2-7.6l3.6-4.8l1.2-1.6l0.8-0.8v-0.3l0.4-0.5l0.4-4v-3.2l4-12.4l17.2,0.4L438.2,236.7z M416.7,257.4l-4,0.4l1.6,1.6
	L416.7,257.4z M452.6,269l-7.2,2.4h0.4l4,0.8L449,271L452.6,269z"/>
<path id="path22" inkscape:connector-curvature="0" class="st6" d="M395,386l1.1,11 M463.2,277.7l-0.4-4l2.4-2.4L462,267l-9.2-7.6
	l-2.4,1.2l-4-6l-4.4,0.4 M460,226.7l4,0.8l-0.4,9.2l-11.2,6.4l-9.6,10.8l-0.8,1.2l-3.6,13.5l-0.4,10.8 M429.7,167.8l10,0.4l-0.4,6
	l5.6,6l-4.4,12.4 M414.3,204.8l5-15.9l10.4-2 M371.5,137l5.5,8.5l-4,19.5l3.6,4.4l-4.4,5.6l-0.8,6l-3.6,1.6 M367.8,95.2l-0.1,0.8
	l-4.7-0.8l-13.2,6.8l-1.2,8l-5.2,7.2l6.8,8.4l-1.6,2.4l5.6,0.4l0.8,2.8v0.4l2.8-0.4h2.8l4.4-4v3.6l-0.4,6.4h12l6-3l5.6-4.6l0.8-0.4
	l7.6-1.6v9.6l2.8,4.8l4.4,2.8l7.2,0.8l7.6,5.6l8.4,1.6l-0.4,8l2.4,7.2h0.8 M372.2,175l4.4,10.7l3.2,2.8l-1.6,6.4l6,14.7l4.8,1.2
	l-1.6,6.4l-6.8,4.8l2.4,14.3l-2.8,0.4l-4,8.4l-1.6,5.6l1.2,4l0.4,1.2l-3.6,7.2l5.6,17.5l-3.2,6.4l1.6,4.8l-3.6,5.2l2.8,10l-3.6,6.4
	l2,14.7l-2,1.2l3.2,11.6l3.2,0.8l-4,1.6l4,2.8l-2,2l1.6,6l-2.4,4.4l0.4,7.6l-3.2,4l1.2,2.8l1.6,4l3.2-0.8l0.4,4.8l2.4,2l13.6,1.6
	 M463.8,55.4l3.4-6l-2.8-8.4l3.2-4.8 M452,57.8l3.6,0.4l-0.4-4h6.4l5.2,2.8l2.4-1.2L474,57l8-10.9 M447.6,34.7l-0.7,5.1l-4,0.8
	l-0.8,4.8l10,12.4l-5.2-0.4l-9.6,4.4l-5.6-4l-1.6-5.6l2.8-6.4l-2.8-2.8l-1.2-0.4l0.4-4.4l-4,0.4l-4-4.4l1.6-4.4l5.2-1.6l-2.8-2.8
	l2.4-1.6l2.4-1.6l1.2-0.8l-1.2-1.6 M368.6,60.2v3.6h3.6l0.4,2.4 M381,53.4l4,2l2,6.8l-3.6-5.2l-2.8,2.4l-2-1.6l0.4,1.6l-10.4,0.8
	 M383.4,33.9L381,43l3.6,6.4l-3.6,4 M425.3,38.7l1.2,1.2l-2.8,2.4l-10.8,3.2l-0.8,2.4L401,44.2l3.6,10l4.4,0.4l-0.4,1.6l-13.2,9.2
	l-0.4-2l-4.4,1.2l-3.6-2.4 M336.3,72.7l-3.2,0.6l2.4,4.8l-2,3.6l-6.8,6.8l-10,6l-4,10l-5.6-3.2l-0.8-0.4l-2,1.2l1.6-3.6l-0.9-2.1
	 M312.1,65l10.3,6.4l6.8-1.2l8.8,3.2l11.6,12.4l7.2-2.4l10.4,2.4l-4,7.2l4.8,2.4l3.6-18.3l-4.4-6l0.4-4.4l5.2-0.4 M356.9,6.3
	l-3.4,2.1l-3.2,6.4l-2.8,4.4l4,0.4l2.4,5.2l-0.8,3.6l3.2,2.4l10.8-0.4l4.4,4.4l12-0.8 M429.7,186.9l10.8,3.6l2,7.2l-1.2,6.8l8.8,0.4
	l4,2l1.6,10l6.8,0.8l-3.2,14.3l-6.4,6.4l-16-1.2l6.4-11.6l-11.2-7.3l-2.7-1l-5.6-2l-10.4-11.6l-6.8,0.4l-2,5.6l-1.6-4.4l-9.6-2.4
	l-5.8,7.5"/>
<path id="path3037" inkscape:connector-curvature="0" sodipodi:nodetypes="cccccccccccccccccc" class="st7" d="M414.3,204.8l5-15.9
	l10.4-2l0,0l10.8,3.6l2,7.2l-1.2,6.8l8.8,0.4l4,2l1.6,10l6.8,0.8l-3.2,14.3l-6.4,6.4l-16-1.2l6.4-11.6c-4.6-2.9-8.8-6.4-14-8.4
	l-5.6-2L414.3,204.8z"/>
<path id="path3039" inkscape:connector-curvature="0" sodipodi:nodetypes="ccccccccccccccccccccccccccccccccccccccc" class="st8" d="
	M429.7,167.8l10,0.4l-0.4,6l5.6,6l-4.4,12.4v-2l-10.8-3.6l-10.4,2l-5,15.9l-0.9-1.2l-6.8,0.4l-2,5.6l-1.6-4.4l-9.6-2.4l-5.8,7.5
	l-3.4-0.8l-6-14.7l1.6-6.4l-3.2-2.8l-4.4-10.7 M372.2,174.9l4.4-5.6L373,165l4-19.5l-5.5-8.5l5.1,0.1l6-3l5.6-4.6l0.8-0.4l7.6-1.6
	v9.6l2.8,4.8l4.4,2.8l7.2,0.8l7.6,5.6l8.4,1.6l-0.4,8l2.4,7.2h0.8"/>
<text transform="matrix(0.9656 0 0 1 5.3994 132.0012)"><tspan x="0" y="0" class="st9 st10 st11">Sud-</tspan><tspan x="0" y="172.3" class="st9 st10 st11">américa</tspan></text>
</svg>
